# xmcd
#
# Track frame offsets:
#	150
#	16128
#	31757
#	45662
#	58507
#	75076
#	89597
#	103977
#	116587
#	129685
#	144885
#	158298
#	175538
#	191085
#	203420
#	213668
#	229641
#	244337
#	258441
#
# Disc length: 3687 seconds
#
# Revision: 1
# Processed by: cddbd v1.4PL0 Copyright (c) Steve Scherf et al.
# Submitted via: audiograbber 1.80
#
DISCID=ef0e6513
DTITLE=Various Artist - Hott Country 012
DYEAR=1900
DGENRE=
TTITLE0=Brooks and Dunn - A Man This Lonely
TTITLE1=George Strait - King Of The Mountain
TTITLE2=Lonestar - Heartbroke Every Day
TTITLE3=Patty Loveless - She Drew A Broken Heart
TTITLE4=John Berry - She Takes A Shine
TTITLE5=Deryl Dodd - That's How I Got To Memphis
TTITLE6=Diamond Rio - Holdin'
TTITLE7=Wade Hayes - It's Over My Head
TTITLE8=Neal McCoy - That Woman Of Mine
TTITLE9=Deanna Carter - We Danced Anyway
TTITLE10=Jeff Wood - You Just Got One
TTITLE11=Crystal Bernard - Have We Forgotten What Love Is
TTITLE12=Kenny Chesney - When I Close MY Eyes
TTITLE13=Ray Vega - Remember When
TTITLE14=Rhett Akins - Every Cowboy's Dream
TTITLE15=Stephane Bentley - Once I Was The Light Of Her Life
TTITLE16=Ty England - All Of The Above
TTITLE17=Farmers Daughter - Lonely Gypsy Wind
TTITLE18=Charlie Major - This Crazy Heart Of Mine
EXTD=
EXTT0=
EXTT1=
EXTT2=
EXTT3=
EXTT4=
EXTT5=
EXTT6=
EXTT7=
EXTT8=
EXTT9=
EXTT10=
EXTT11=
EXTT12=
EXTT13=
EXTT14=
EXTT15=
EXTT16=
EXTT17=
EXTT18=
PLAYORDER=
